<mxfile host="app.diagrams.net" agent="Mozilla/5.0 (X11; Linux x86_64; rv:133.0) Gecko/20100101 Firefox/133.0" version="25.0.3">
  <diagram id="prtHgNgQTEPvFCAcTncT" name="Page-1">
    <mxGraphModel dx="2007" dy="785" grid="1" gridSize="10" guides="1" tooltips="1" connect="1" arrows="1" fold="1" page="1" pageScale="1" pageWidth="827" pageHeight="1169" math="0" shadow="0">
      <root>
        <mxCell id="0" />
        <mxCell id="1" parent="0" />
        <mxCell id="lHLxZOOAlJGXKzHffYLk-1" value="&lt;div&gt;User&lt;/div&gt;" style="shape=umlActor;verticalLabelPosition=bottom;verticalAlign=top;html=1;outlineConnect=0;" parent="1" vertex="1">
          <mxGeometry x="40" y="260" width="30" height="60" as="geometry" />
        </mxCell>
        <mxCell id="lHLxZOOAlJGXKzHffYLk-3" value="React web app" style="rounded=0;whiteSpace=wrap;html=1;" parent="1" vertex="1">
          <mxGeometry x="150" y="260" width="120" height="60" as="geometry" />
        </mxCell>
        <mxCell id="lHLxZOOAlJGXKzHffYLk-4" value="" style="endArrow=classic;html=1;rounded=0;entryX=0;entryY=0.5;entryDx=0;entryDy=0;" parent="1" source="lHLxZOOAlJGXKzHffYLk-1" target="lHLxZOOAlJGXKzHffYLk-3" edge="1">
          <mxGeometry width="50" height="50" relative="1" as="geometry">
            <mxPoint x="310" y="370" as="sourcePoint" />
            <mxPoint x="360" y="320" as="targetPoint" />
          </mxGeometry>
        </mxCell>
        <mxCell id="lHLxZOOAlJGXKzHffYLk-5" value="&lt;div&gt;Docker engine&lt;br&gt;&lt;/div&gt;" style="swimlane;whiteSpace=wrap;html=1;" parent="1" vertex="1">
          <mxGeometry x="380" y="150" width="420" height="280" as="geometry" />
        </mxCell>
        <mxCell id="lHLxZOOAlJGXKzHffYLk-7" value="&lt;div&gt;Flask server&lt;/div&gt;" style="rounded=0;whiteSpace=wrap;html=1;" parent="lHLxZOOAlJGXKzHffYLk-5" vertex="1">
          <mxGeometry x="30" y="50" width="120" height="60" as="geometry" />
        </mxCell>
        <mxCell id="lHLxZOOAlJGXKzHffYLk-12" value="&lt;div&gt;Users&lt;/div&gt;" style="shape=cylinder3;whiteSpace=wrap;html=1;boundedLbl=1;backgroundOutline=1;size=15;" parent="lHLxZOOAlJGXKzHffYLk-5" vertex="1">
          <mxGeometry x="230" y="30" width="60" height="80" as="geometry" />
        </mxCell>
        <mxCell id="lHLxZOOAlJGXKzHffYLk-13" value="Game history" style="shape=cylinder3;whiteSpace=wrap;html=1;boundedLbl=1;backgroundOutline=1;size=15;" parent="lHLxZOOAlJGXKzHffYLk-5" vertex="1">
          <mxGeometry x="280" y="120" width="60" height="80" as="geometry" />
        </mxCell>
        <mxCell id="lHLxZOOAlJGXKzHffYLk-14" value="Current games" style="shape=cylinder3;whiteSpace=wrap;html=1;boundedLbl=1;backgroundOutline=1;size=15;" parent="lHLxZOOAlJGXKzHffYLk-5" vertex="1">
          <mxGeometry x="200" y="180" width="60" height="80" as="geometry" />
        </mxCell>
        <mxCell id="lHLxZOOAlJGXKzHffYLk-15" value="" style="endArrow=classic;startArrow=classic;html=1;rounded=0;exitX=1;exitY=0.25;exitDx=0;exitDy=0;" parent="lHLxZOOAlJGXKzHffYLk-5" source="lHLxZOOAlJGXKzHffYLk-7" target="lHLxZOOAlJGXKzHffYLk-12" edge="1">
          <mxGeometry width="50" height="50" relative="1" as="geometry">
            <mxPoint x="90" y="200" as="sourcePoint" />
            <mxPoint x="180" y="150" as="targetPoint" />
          </mxGeometry>
        </mxCell>
        <mxCell id="lHLxZOOAlJGXKzHffYLk-16" value="" style="endArrow=classic;startArrow=classic;html=1;rounded=0;entryX=1;entryY=0.5;entryDx=0;entryDy=0;" parent="lHLxZOOAlJGXKzHffYLk-5" source="lHLxZOOAlJGXKzHffYLk-13" target="lHLxZOOAlJGXKzHffYLk-7" edge="1">
          <mxGeometry width="50" height="50" relative="1" as="geometry">
            <mxPoint x="90" y="200" as="sourcePoint" />
            <mxPoint x="140" y="150" as="targetPoint" />
          </mxGeometry>
        </mxCell>
        <mxCell id="lHLxZOOAlJGXKzHffYLk-17" value="" style="endArrow=classic;startArrow=classic;html=1;rounded=0;entryX=1.017;entryY=0.816;entryDx=0;entryDy=0;entryPerimeter=0;" parent="lHLxZOOAlJGXKzHffYLk-5" source="lHLxZOOAlJGXKzHffYLk-14" target="lHLxZOOAlJGXKzHffYLk-7" edge="1">
          <mxGeometry width="50" height="50" relative="1" as="geometry">
            <mxPoint x="90" y="200" as="sourcePoint" />
            <mxPoint x="140" y="150" as="targetPoint" />
          </mxGeometry>
        </mxCell>
        <mxCell id="EcFOnZXp8G3OWKKi8Jwp-49" value="&lt;div&gt;Static server of react files&lt;/div&gt;" style="rounded=0;whiteSpace=wrap;html=1;" vertex="1" parent="lHLxZOOAlJGXKzHffYLk-5">
          <mxGeometry x="30" y="170" width="120" height="60" as="geometry" />
        </mxCell>
        <mxCell id="lHLxZOOAlJGXKzHffYLk-10" value="" style="endArrow=classic;startArrow=classic;html=1;rounded=0;exitX=1;exitY=0.25;exitDx=0;exitDy=0;entryX=0;entryY=0.5;entryDx=0;entryDy=0;" parent="1" source="lHLxZOOAlJGXKzHffYLk-3" target="lHLxZOOAlJGXKzHffYLk-7" edge="1">
          <mxGeometry width="50" height="50" relative="1" as="geometry">
            <mxPoint x="470" y="350" as="sourcePoint" />
            <mxPoint x="520" y="300" as="targetPoint" />
          </mxGeometry>
        </mxCell>
        <mxCell id="EcFOnZXp8G3OWKKi8Jwp-46" value="&lt;div&gt;SocketIO&lt;/div&gt;" style="edgeLabel;html=1;align=center;verticalAlign=middle;resizable=0;points=[];" vertex="1" connectable="0" parent="lHLxZOOAlJGXKzHffYLk-10">
          <mxGeometry x="-0.0732" y="-2" relative="1" as="geometry">
            <mxPoint as="offset" />
          </mxGeometry>
        </mxCell>
        <mxCell id="EcFOnZXp8G3OWKKi8Jwp-1" value="Konfiguracja lobby" style="rounded=1;whiteSpace=wrap;html=1;" vertex="1" parent="1">
          <mxGeometry x="10" y="720" width="120" height="60" as="geometry" />
        </mxCell>
        <mxCell id="EcFOnZXp8G3OWKKi8Jwp-2" value="Stan gotowosci do gry" style="rounded=1;whiteSpace=wrap;html=1;" vertex="1" parent="1">
          <mxGeometry x="330" y="720" width="120" height="60" as="geometry" />
        </mxCell>
        <mxCell id="EcFOnZXp8G3OWKKi8Jwp-5" value="Twoja tura" style="rounded=1;whiteSpace=wrap;html=1;" vertex="1" parent="1">
          <mxGeometry x="620" y="710" width="120" height="60" as="geometry" />
        </mxCell>
        <mxCell id="EcFOnZXp8G3OWKKi8Jwp-7" value="&lt;div&gt;koniec gry&lt;/div&gt;" style="rounded=1;whiteSpace=wrap;html=1;" vertex="1" parent="1">
          <mxGeometry x="1170.79" y="700" width="120" height="60" as="geometry" />
        </mxCell>
        <mxCell id="EcFOnZXp8G3OWKKi8Jwp-8" value="" style="endArrow=classic;html=1;rounded=0;exitX=1;exitY=0.5;exitDx=0;exitDy=0;entryX=0;entryY=0.5;entryDx=0;entryDy=0;" edge="1" parent="1" source="EcFOnZXp8G3OWKKi8Jwp-1" target="EcFOnZXp8G3OWKKi8Jwp-2">
          <mxGeometry width="50" height="50" relative="1" as="geometry">
            <mxPoint x="300" y="740" as="sourcePoint" />
            <mxPoint x="350" y="690" as="targetPoint" />
          </mxGeometry>
        </mxCell>
        <mxCell id="EcFOnZXp8G3OWKKi8Jwp-23" value="Wszystkie sloty z mozliwych&lt;br&gt;sa zapelnione" style="edgeLabel;html=1;align=center;verticalAlign=middle;resizable=0;points=[];" vertex="1" connectable="0" parent="EcFOnZXp8G3OWKKi8Jwp-8">
          <mxGeometry x="-0.2984" relative="1" as="geometry">
            <mxPoint x="20" as="offset" />
          </mxGeometry>
        </mxCell>
        <mxCell id="EcFOnZXp8G3OWKKi8Jwp-9" value="" style="endArrow=classic;html=1;rounded=0;exitX=1;exitY=0.5;exitDx=0;exitDy=0;entryX=0;entryY=0.5;entryDx=0;entryDy=0;" edge="1" parent="1" source="EcFOnZXp8G3OWKKi8Jwp-2" target="EcFOnZXp8G3OWKKi8Jwp-5">
          <mxGeometry width="50" height="50" relative="1" as="geometry">
            <mxPoint x="300" y="740" as="sourcePoint" />
            <mxPoint x="350" y="690" as="targetPoint" />
          </mxGeometry>
        </mxCell>
        <mxCell id="EcFOnZXp8G3OWKKi8Jwp-22" value="Wszyscy gracze so gotowi" style="edgeLabel;html=1;align=center;verticalAlign=middle;resizable=0;points=[];" vertex="1" connectable="0" parent="EcFOnZXp8G3OWKKi8Jwp-9">
          <mxGeometry x="-0.2015" y="-1" relative="1" as="geometry">
            <mxPoint as="offset" />
          </mxGeometry>
        </mxCell>
        <mxCell id="EcFOnZXp8G3OWKKi8Jwp-10" value="Tura gracza nr2" style="rounded=1;whiteSpace=wrap;html=1;" vertex="1" parent="1">
          <mxGeometry x="798.22" y="575" width="120" height="60" as="geometry" />
        </mxCell>
        <mxCell id="EcFOnZXp8G3OWKKi8Jwp-11" value="Tura gracza nr2" style="rounded=1;whiteSpace=wrap;html=1;" vertex="1" parent="1">
          <mxGeometry x="798.22" y="850" width="120" height="60" as="geometry" />
        </mxCell>
        <mxCell id="EcFOnZXp8G3OWKKi8Jwp-12" value="Tura gracza nr3" style="rounded=1;whiteSpace=wrap;html=1;" vertex="1" parent="1">
          <mxGeometry x="958.22" y="700" width="120" height="60" as="geometry" />
        </mxCell>
        <mxCell id="EcFOnZXp8G3OWKKi8Jwp-14" value="" style="endArrow=classic;html=1;rounded=0;exitX=0.5;exitY=0;exitDx=0;exitDy=0;entryX=0;entryY=0.5;entryDx=0;entryDy=0;" edge="1" parent="1" source="EcFOnZXp8G3OWKKi8Jwp-5" target="EcFOnZXp8G3OWKKi8Jwp-10">
          <mxGeometry width="50" height="50" relative="1" as="geometry">
            <mxPoint x="850" y="640" as="sourcePoint" />
            <mxPoint x="900" y="590" as="targetPoint" />
          </mxGeometry>
        </mxCell>
        <mxCell id="EcFOnZXp8G3OWKKi8Jwp-16" value="wykonanie ruchu - koniec tury" style="edgeLabel;html=1;align=center;verticalAlign=middle;resizable=0;points=[];" vertex="1" connectable="0" parent="EcFOnZXp8G3OWKKi8Jwp-14">
          <mxGeometry x="0.2051" relative="1" as="geometry">
            <mxPoint as="offset" />
          </mxGeometry>
        </mxCell>
        <mxCell id="EcFOnZXp8G3OWKKi8Jwp-15" value="" style="endArrow=classic;html=1;rounded=0;entryX=0.5;entryY=0;entryDx=0;entryDy=0;exitX=1;exitY=0.5;exitDx=0;exitDy=0;" edge="1" parent="1" source="EcFOnZXp8G3OWKKi8Jwp-10" target="EcFOnZXp8G3OWKKi8Jwp-12">
          <mxGeometry width="50" height="50" relative="1" as="geometry">
            <mxPoint x="850" y="640" as="sourcePoint" />
            <mxPoint x="900" y="590" as="targetPoint" />
          </mxGeometry>
        </mxCell>
        <mxCell id="EcFOnZXp8G3OWKKi8Jwp-17" value="wykonanie ruchu - koniec tury" style="edgeLabel;html=1;align=center;verticalAlign=middle;resizable=0;points=[];" vertex="1" connectable="0" parent="EcFOnZXp8G3OWKKi8Jwp-15">
          <mxGeometry x="-0.2102" relative="1" as="geometry">
            <mxPoint as="offset" />
          </mxGeometry>
        </mxCell>
        <mxCell id="EcFOnZXp8G3OWKKi8Jwp-18" value="" style="endArrow=classic;html=1;rounded=0;exitX=0.5;exitY=1;exitDx=0;exitDy=0;entryX=1;entryY=0.5;entryDx=0;entryDy=0;" edge="1" parent="1" source="EcFOnZXp8G3OWKKi8Jwp-12" target="EcFOnZXp8G3OWKKi8Jwp-11">
          <mxGeometry width="50" height="50" relative="1" as="geometry">
            <mxPoint x="850" y="640" as="sourcePoint" />
            <mxPoint x="900" y="590" as="targetPoint" />
          </mxGeometry>
        </mxCell>
        <mxCell id="EcFOnZXp8G3OWKKi8Jwp-19" value="wykonanie ruchu - koniec tury" style="edgeLabel;html=1;align=center;verticalAlign=middle;resizable=0;points=[];" vertex="1" connectable="0" parent="EcFOnZXp8G3OWKKi8Jwp-18">
          <mxGeometry x="-0.1163" y="-1" relative="1" as="geometry">
            <mxPoint as="offset" />
          </mxGeometry>
        </mxCell>
        <mxCell id="EcFOnZXp8G3OWKKi8Jwp-20" value="" style="endArrow=classic;html=1;rounded=0;entryX=0.5;entryY=1;entryDx=0;entryDy=0;exitX=0;exitY=0.5;exitDx=0;exitDy=0;" edge="1" parent="1" source="EcFOnZXp8G3OWKKi8Jwp-11" target="EcFOnZXp8G3OWKKi8Jwp-5">
          <mxGeometry width="50" height="50" relative="1" as="geometry">
            <mxPoint x="850" y="640" as="sourcePoint" />
            <mxPoint x="900" y="590" as="targetPoint" />
          </mxGeometry>
        </mxCell>
        <mxCell id="EcFOnZXp8G3OWKKi8Jwp-21" value="wykonanie ruchu - koniec tury" style="edgeLabel;html=1;align=center;verticalAlign=middle;resizable=0;points=[];" vertex="1" connectable="0" parent="EcFOnZXp8G3OWKKi8Jwp-20">
          <mxGeometry x="-0.0046" relative="1" as="geometry">
            <mxPoint as="offset" />
          </mxGeometry>
        </mxCell>
        <mxCell id="EcFOnZXp8G3OWKKi8Jwp-25" value="" style="curved=1;endArrow=classic;html=1;rounded=0;exitX=0.25;exitY=0;exitDx=0;exitDy=0;entryX=0;entryY=0.5;entryDx=0;entryDy=0;" edge="1" parent="1" source="EcFOnZXp8G3OWKKi8Jwp-5" target="EcFOnZXp8G3OWKKi8Jwp-7">
          <mxGeometry width="50" height="50" relative="1" as="geometry">
            <mxPoint x="580" y="670" as="sourcePoint" />
            <mxPoint x="630" y="620" as="targetPoint" />
            <Array as="points">
              <mxPoint x="630" y="670" />
              <mxPoint x="1000" y="420" />
            </Array>
          </mxGeometry>
        </mxCell>
        <mxCell id="EcFOnZXp8G3OWKKi8Jwp-32" value="Ruch wygrywa gre" style="edgeLabel;html=1;align=center;verticalAlign=middle;resizable=0;points=[];" vertex="1" connectable="0" parent="EcFOnZXp8G3OWKKi8Jwp-25">
          <mxGeometry x="0.4807" y="-24" relative="1" as="geometry">
            <mxPoint as="offset" />
          </mxGeometry>
        </mxCell>
        <mxCell id="EcFOnZXp8G3OWKKi8Jwp-26" value="" style="curved=1;endArrow=classic;html=1;rounded=0;exitX=0.5;exitY=0;exitDx=0;exitDy=0;entryX=0;entryY=0.5;entryDx=0;entryDy=0;" edge="1" parent="1" source="EcFOnZXp8G3OWKKi8Jwp-10" target="EcFOnZXp8G3OWKKi8Jwp-7">
          <mxGeometry width="50" height="50" relative="1" as="geometry">
            <mxPoint x="780.79" y="570" as="sourcePoint" />
            <mxPoint x="830.79" y="520" as="targetPoint" />
            <Array as="points">
              <mxPoint x="830.79" y="570" />
              <mxPoint x="990.79" y="530" />
            </Array>
          </mxGeometry>
        </mxCell>
        <mxCell id="EcFOnZXp8G3OWKKi8Jwp-31" value="Ruch wygrywa gre" style="edgeLabel;html=1;align=center;verticalAlign=middle;resizable=0;points=[];" vertex="1" connectable="0" parent="EcFOnZXp8G3OWKKi8Jwp-26">
          <mxGeometry x="0.2281" y="-13" relative="1" as="geometry">
            <mxPoint as="offset" />
          </mxGeometry>
        </mxCell>
        <mxCell id="EcFOnZXp8G3OWKKi8Jwp-27" value="" style="curved=1;endArrow=classic;html=1;rounded=0;exitX=0.5;exitY=1;exitDx=0;exitDy=0;entryX=0;entryY=0.5;entryDx=0;entryDy=0;" edge="1" parent="1" source="EcFOnZXp8G3OWKKi8Jwp-11" target="EcFOnZXp8G3OWKKi8Jwp-7">
          <mxGeometry width="50" height="50" relative="1" as="geometry">
            <mxPoint x="980.79" y="940" as="sourcePoint" />
            <mxPoint x="1030.79" y="890" as="targetPoint" />
            <Array as="points">
              <mxPoint x="1040.79" y="940" />
              <mxPoint x="1150.79" y="780" />
            </Array>
          </mxGeometry>
        </mxCell>
        <mxCell id="EcFOnZXp8G3OWKKi8Jwp-30" value="Ruch wygrywa gre" style="edgeLabel;html=1;align=center;verticalAlign=middle;resizable=0;points=[];" vertex="1" connectable="0" parent="EcFOnZXp8G3OWKKi8Jwp-27">
          <mxGeometry x="-0.2691" y="25" relative="1" as="geometry">
            <mxPoint as="offset" />
          </mxGeometry>
        </mxCell>
        <mxCell id="EcFOnZXp8G3OWKKi8Jwp-28" value="" style="endArrow=classic;html=1;rounded=0;entryX=0;entryY=0.5;entryDx=0;entryDy=0;exitX=1;exitY=0.5;exitDx=0;exitDy=0;" edge="1" parent="1" source="EcFOnZXp8G3OWKKi8Jwp-12" target="EcFOnZXp8G3OWKKi8Jwp-7">
          <mxGeometry width="50" height="50" relative="1" as="geometry">
            <mxPoint x="910.79" y="770" as="sourcePoint" />
            <mxPoint x="960.79" y="720" as="targetPoint" />
          </mxGeometry>
        </mxCell>
        <mxCell id="EcFOnZXp8G3OWKKi8Jwp-29" value="Ruch wygrywa gre" style="edgeLabel;html=1;align=center;verticalAlign=middle;resizable=0;points=[];" vertex="1" connectable="0" parent="EcFOnZXp8G3OWKKi8Jwp-28">
          <mxGeometry x="-0.1945" relative="1" as="geometry">
            <mxPoint as="offset" />
          </mxGeometry>
        </mxCell>
        <mxCell id="EcFOnZXp8G3OWKKi8Jwp-37" value="Board" style="swimlane;fontStyle=1;align=center;verticalAlign=top;childLayout=stackLayout;horizontal=1;startSize=26;horizontalStack=0;resizeParent=1;resizeParentMax=0;resizeLast=0;collapsible=1;marginBottom=0;whiteSpace=wrap;html=1;" vertex="1" parent="1">
          <mxGeometry x="870" y="60" width="232.57" height="150" as="geometry" />
        </mxCell>
        <mxCell id="EcFOnZXp8G3OWKKi8Jwp-38" value="board : list&lt;br&gt;&lt;div&gt;moves : list&lt;/div&gt;&lt;div&gt;piece_count : int&lt;/div&gt;&lt;div&gt;player_count : int&lt;br&gt;&lt;/div&gt;" style="text;strokeColor=none;fillColor=none;align=left;verticalAlign=top;spacingLeft=4;spacingRight=4;overflow=hidden;rotatable=0;points=[[0,0.5],[1,0.5]];portConstraint=eastwest;whiteSpace=wrap;html=1;" vertex="1" parent="EcFOnZXp8G3OWKKi8Jwp-37">
          <mxGeometry y="26" width="232.57" height="74" as="geometry" />
        </mxCell>
        <mxCell id="EcFOnZXp8G3OWKKi8Jwp-39" value="" style="line;strokeWidth=1;fillColor=none;align=left;verticalAlign=middle;spacingTop=-1;spacingLeft=3;spacingRight=3;rotatable=0;labelPosition=right;points=[];portConstraint=eastwest;strokeColor=inherit;" vertex="1" parent="EcFOnZXp8G3OWKKi8Jwp-37">
          <mxGeometry y="100" width="232.57" height="8" as="geometry" />
        </mxCell>
        <mxCell id="EcFOnZXp8G3OWKKi8Jwp-40" value="connect_board()&lt;br&gt;make_board()" style="text;strokeColor=none;fillColor=none;align=left;verticalAlign=top;spacingLeft=4;spacingRight=4;overflow=hidden;rotatable=0;points=[[0,0.5],[1,0.5]];portConstraint=eastwest;whiteSpace=wrap;html=1;" vertex="1" parent="EcFOnZXp8G3OWKKi8Jwp-37">
          <mxGeometry y="108" width="232.57" height="42" as="geometry" />
        </mxCell>
        <mxCell id="EcFOnZXp8G3OWKKi8Jwp-42" value="Board_node" style="swimlane;fontStyle=1;align=center;verticalAlign=top;childLayout=stackLayout;horizontal=1;startSize=26;horizontalStack=0;resizeParent=1;resizeParentMax=0;resizeLast=0;collapsible=1;marginBottom=0;whiteSpace=wrap;html=1;" vertex="1" parent="1">
          <mxGeometry x="1120" y="60" width="250" height="220" as="geometry" />
        </mxCell>
        <mxCell id="EcFOnZXp8G3OWKKi8Jwp-43" value="&lt;div&gt;down_left : Optional[Board_node]&lt;/div&gt;&lt;div&gt;down_right : Optional[Board_node]&lt;/div&gt;&lt;div&gt;left : Optional[Board_node]&lt;/div&gt;&lt;div&gt;right : Optional[Board_node]&lt;/div&gt;&lt;div&gt;up_left : Optional[Board_node]&lt;/div&gt;&lt;div&gt;up_right : Optional[Board_node]&lt;/div&gt;" style="text;strokeColor=none;fillColor=none;align=left;verticalAlign=top;spacingLeft=4;spacingRight=4;overflow=hidden;rotatable=0;points=[[0,0.5],[1,0.5]];portConstraint=eastwest;whiteSpace=wrap;html=1;" vertex="1" parent="EcFOnZXp8G3OWKKi8Jwp-42">
          <mxGeometry y="26" width="250" height="104" as="geometry" />
        </mxCell>
        <mxCell id="EcFOnZXp8G3OWKKi8Jwp-44" value="" style="line;strokeWidth=1;fillColor=none;align=left;verticalAlign=middle;spacingTop=-1;spacingLeft=3;spacingRight=3;rotatable=0;labelPosition=right;points=[];portConstraint=eastwest;strokeColor=inherit;" vertex="1" parent="EcFOnZXp8G3OWKKi8Jwp-42">
          <mxGeometry y="130" width="250" height="8" as="geometry" />
        </mxCell>
        <mxCell id="EcFOnZXp8G3OWKKi8Jwp-45" value="connect(up_left: &#39;Board_node&#39; = None,up_right: &#39;Board_node&#39; = None,left: &#39;Board_node&#39; = None,right: &#39;Board_node&#39; = None,down_left: &#39;Board_node&#39; = None,down_right: &#39;Board_node&#39; = None)" style="text;strokeColor=none;fillColor=none;align=left;verticalAlign=top;spacingLeft=4;spacingRight=4;overflow=hidden;rotatable=0;points=[[0,0.5],[1,0.5]];portConstraint=eastwest;whiteSpace=wrap;html=1;" vertex="1" parent="EcFOnZXp8G3OWKKi8Jwp-42">
          <mxGeometry y="138" width="250" height="82" as="geometry" />
        </mxCell>
        <mxCell id="EcFOnZXp8G3OWKKi8Jwp-47" value="" style="endArrow=classic;startArrow=classic;html=1;rounded=0;exitX=1;exitY=0.75;exitDx=0;exitDy=0;entryX=0;entryY=0.5;entryDx=0;entryDy=0;" edge="1" parent="1" source="lHLxZOOAlJGXKzHffYLk-3" target="EcFOnZXp8G3OWKKi8Jwp-49">
          <mxGeometry width="50" height="50" relative="1" as="geometry">
            <mxPoint x="1050" y="410" as="sourcePoint" />
            <mxPoint x="1100" y="360" as="targetPoint" />
          </mxGeometry>
        </mxCell>
        <mxCell id="EcFOnZXp8G3OWKKi8Jwp-48" value="REST API" style="edgeLabel;html=1;align=center;verticalAlign=middle;resizable=0;points=[];" vertex="1" connectable="0" parent="EcFOnZXp8G3OWKKi8Jwp-47">
          <mxGeometry x="0.0011" relative="1" as="geometry">
            <mxPoint as="offset" />
          </mxGeometry>
        </mxCell>
      </root>
    </mxGraphModel>
  </diagram>
</mxfile>
